<svg data-name="Layer 1" xmlns="http://www.w3.org/2000/svg" width="1140.6" height="787.3"><defs><linearGradient id="a" x1="852.4" y1="835.9" x2="852.4" y2="338.3" gradientUnits="userSpaceOnUse"><stop offset="0" stop-color="gray" stop-opacity=".3"/><stop offset=".5" stop-color="gray" stop-opacity=".1"/><stop offset="1" stop-color="gray" stop-opacity=".1"/></linearGradient></defs><path d="M8.8 414.5c20.1-33 65.7-27.2 98-10s64.6 42.8 100.2 37.9c30-4.2 54.6-30.3 67.9-60.5s17.2-64.2 21-97.6l14-125.7c1.7-15.3 3.8-31.5 12.4-43.6 11.4-16 32.3-21 50.1-16.1s33.1 17.7 46.1 32c41.8 46.2 65.4 108.5 102 159.7 7.3 10.5 15.7 20.8 26.8 25.8 16 7.3 34.4 2.2 50-6 51-26.2 85.3-79.8 119-130 16.4-24.2 36.3-50.3 63.6-53 28.6-2.8 53.5 21.7 70.4 47.5 54 83.3 65.7 197 131 269.5 8 9 17 17.3 27.4 23a70.7 70.7 0 0 0 10.5 4.6c57 19.7 76 99 33.9 145.9l-2.8 3a46.6 46.6 0 0 1-21.8 14.8c-7.9 1.8-16-.3-23.8-2.5-49.9-14.6-99.1-36.8-150.7-35.8-50.1 1-97.7 24.2-147.3 32.6-33.4 5.6-67.3 4.4-101 3.2q-168.5-6-336.9-14c-55.7-2.6-111.4-5-167.1-8-43-2.2-70.3-7-75.3-56.9-4.3-43.6-43.5-97.6-17.6-139.8z" fill="#007bff" opacity=".1"/><ellipse cx="789.9" cy="749.5" rx="270" ry="37.7" fill="#30374e"/><path d="M148.7 586.8s13.2-3 21.9 5.8c0 0-5.6 5-18.6-.5zM147.3 586.6s-7.8 11.1-2.9 22.5c0 0 6.8-3.3 6.6-17.5zM138.5 570s4.7-10.2 27 2c0 0-2.4 6.8-11.9 7s-12.3-4-15.1-9zM137 569.3s-11.1-.5-10.5 25c0 0 7.2 1 11.6-7.4s2-12.8-1-17.6zM129.3 549.5s5-17.7 28.4-6.9c0 0-4 16.2-25.7 12.7zM120.6 524.2s10.5-18.3 32.5-3.5c0 0-6.2 17-30.3 9.6zM116.4 499.8s12.7-17 34.4-2.3c0 0-12 15-34.1 6.4zM112.7 476s12.7-17.6 33.6-3c0 0-14.7 15.7-33.4 7zM112.5 454.8s13.2-22.5 32.7-9.2c0 0-14.5 19.6-32.4 13.3zM114.3 429.8s14-22.4 33-7.2c0 0-17 19.8-32.8 11.2zM118 407.4s17-21.3 33.5-14.4c0 0-17.7 22.6-34 19.8zM123 386s19.4-26 32.3-18.7c0 0-14.3 20.1-33.6 23.4zM130.5 361s17.2-21.3 31-17.2c0 0-14.4 21.9-33 23.7zM137.4 337.7s19.2-20.6 28.3-17.8c0 0-13.4 22.4-29 22.1zM144.2 316.1s16-24.1 25.8-23c0 0-9.3 21.2-25.7 25.4zM151.1 287.2s14.4-18.6 22.9-19.1c0 0-10.8 24.3-23.1 25zM155.1 268l12.6-37.7s3 33.1-14 44.7zM158.5 227.2s.5-30.8-1.3-33.2c0 0 12.5 24.7 2.1 46.7zM128.6 549.1s-16.2-8.6-24.7 15.8c0 0 14.5 8.3 27-9.8zM120 523.2s-19.7-7.4-27.4 18c0 0 15.5 9 29.6-11.9zM115.6 501.3s-14.8-15.1-34.3 2.3c0 0 14 13.2 34.6 1.8zM112.2 476.1s-15-15.8-33.7 1.4c0 0 16.7 13.7 34 2.5z" fill="#007bff"/><path d="M112.6 455.4s-11.4-23.5-31.9-11.7c0 0 12.9 20.7 31.3 15.8zM115.4 429.6s-11.3-23.9-32-11c0 0 14.6 21.6 31.3 14.9zM120 407.3s-5.7-26.6-23.6-27.8c0 0 5.7 28.1 21.5 32.8zM123.4 386s-3.7-32.3-18.5-32.5c0 0 2.2 24.6 17.1 37.2zM132 360s-6.2-26.7-20.5-29c0 0 3.5 26 19.6 35.7zM139 337.8s-2-28-10.8-31.6c0 0-3.6 25.7 8.6 35.3zM144.8 315.8s-3.2-28.9-12.3-32.3c0 0-1.5 23 11 34.3zM152.5 289.5s-1.6-23.6-8.3-28.7c0 0-4.6 26.2 5.3 33.6z" fill="#007bff"/><path d="M154.3 267l-8.8-38.8s-6.3 32.6 9.5 45.8zM153 228s-17.7-25.4-17.6-28.3c0 0 3.6 27.5 24.4 39.9zM154.3 220s-17.5-36.4-24.5-39c0 0 22.1 9.5 25.7 37.8z" fill="#007bff"/><path d="M150.8 293.3l-1-.3c9.9-42 11.3-68.5 4-74.6l.6-.8c7.7 6.5 6.5 32.6-3.6 75.7z" fill="#444053"/><path d="M122.5 392l-1.5-.5c1-3.9 2.3-7.8 3.5-11.7 11-33.7 20.2-65 25.8-89l1.2-.7c-5.6 24-14.5 56.5-25.5 90.2a312 312 0 0 0-3.5 11.6z" fill="#444053"/><path d="M169.6 616.3c-.2-.2-22.2-21.9-39.1-60.2a232.4 232.4 0 0 1-18.6-70.8c-3-30.5 1-65.1 10-96.9l1.2 1.3a246.2 246.2 0 0 0 9.3 165.4c16.7 38 38.4 59.5 38.7 59.7z" fill="#444053"/><path d="M193.8 502.1s8-1.8 13.2 3.5c0 0-3.3 3-11.2-.3zM193 502s-4.8 6.7-1.8 13.6c0 0 4.1-2 4-10.6zM187.6 492s2.9-6.2 16.3 1.2c0 0-1.4 4.1-7.2 4.2s-7.4-2.5-9-5.5zM186.8 491.5s-6.8-.3-6.4 15.1c0 0 4.3.6 7-4.5s1.3-7.6-.6-10.5zM182 479.6s3.1-10.7 17.3-4.2c0 0-2.5 9.8-15.6 7.6zM176.8 464.3s6.4-11 19.6-2.1c0 0-3.7 10.2-18.3 5.8zM174.3 449.5s7.6-10.2 20.7-1.4c0 0-7.2 9-20.5 3.9zM172 435.2s7.7-10.7 20.3-2c0 0-8.8 9.6-20.1 4.3zM172 422.3s8-13.6 19.6-5.5c0 0-8.7 11.8-19.5 8zM173 407.2s8.5-13.5 20-4.4c0 0-10.4 12-20 6.8zM175.2 393.6s10.3-12.8 20.3-8.6c0 0-10.7 13.6-20.6 11.9zM178.2 380.7s11.8-15.7 19.6-11.3c0 0-8.7 12.2-20.3 14.2zM182.8 365.6s10.4-12.9 18.8-10.4c0 0-8.8 13.2-20 14.3zM187 351.5s11.5-12.4 17-10.7c0 0-8 13.5-17.4 13.3zM191 338.5s9.8-14.6 15.6-14c0 0-5.6 12.9-15.5 15.4zM195.3 321s8.7-11.3 13.8-11.6c0 0-6.5 14.7-14 15.1zM197.7 309.4l7.6-22.8s1.8 20-8.5 27zM199.7 284.7s.3-18.6-.8-20c0 0 7.6 14.9 1.3 28.2zM181.7 479.4s-9.9-5.3-15 9.5c0 0 8.7 5 16.3-6zM176.4 463.6s-11.9-4.5-16.5 10.8c0 0 9.4 5.6 17.8-7zM173.8 450.4s-9-9.1-20.8 1.4c0 0 8.5 8 21 1.1zM171.7 435.2s-9-9.6-20.3.8c0 0 10 8.3 20.5 1.6zM172 422.6s-7-14.2-19.3-7c0 0 7.8 12.4 18.9 9.5z" fill="#007bff"/><path d="M173.7 407s-6.9-14.4-19.4-6.6c0 0 8.8 13 19 9zM176.4 393.6s-3.4-16-14.2-16.8c0 0 3.4 17 13 19.9zM178.5 380.7s-2.2-19.5-11.2-19.6c0 0 1.3 14.8 10.3 22.4zM183.7 365s-3.8-16.1-12.4-17.5c0 0 2.1 15.7 11.8 21.5zM188 351.6s-1.3-17-6.6-19.1c0 0-2.2 15.5 5.2 21.3zM191.4 338.3s-1.9-17.5-7.4-19.6c0 0-1 14 6.7 20.8zM196.1 322.4s-1-14.2-5-17.3c0 0-2.8 15.8 3.2 20.2z" fill="#007bff"/><path d="M197.2 308.7l-5.3-23.4S188 305 197.6 313zM196.3 285.2s-10.6-15.3-10.5-17.1c0 0 2.1 16.6 14.7 24.1zM197.1 280.4s-10.5-22-14.7-23.6c0 0 13.3 5.7 15.4 22.9z" fill="#007bff"/><path d="M195 324.6l-.6-.1c6-25.4 6.8-41.4 2.4-45l.4-.6c4.7 4 4 19.7-2.1 45.7z" fill="#444053"/><path d="M178 384.3l-1-.3a706.8 706.8 0 0 0 17.7-60.8l.8-.4a703.4 703.4 0 0 1-17.5 61.5z" fill="#444053"/><path d="M206.4 520c-.1-.2-13.4-13.3-23.6-36.5a140.7 140.7 0 0 1-11.3-42.7 164 164 0 0 1 6-58.6l.8.8c-12 43-3.7 78.8 5.6 100 10.2 23 23.3 35.9 23.4 36z" fill="#444053"/><path d="M236.5 570a38.2 38.2 0 0 0-7.5 2.1c-54 21.5-53 162.5-53 162.5h-16s-5-60.5-26.7-146.8c-19.6-77.7 60.9-147.3 77.2-160.5l2.9-2.2c81 29.8 23.1 144.9 23.1 144.9z" fill="#afc0e0"/><path d="M219.3 427.5c-1.9-.8-3.8-1.7-5.9-2.4l-2.8 2.2c-16.4 13.2-96.9 82.8-77.3 160.5 21.8 86.4 26.8 146.8 26.8 146.8h9s-5-60.5-26.9-146.8c-19.5-77.3 60.2-146.7 77-160.3z" fill="#fff" opacity=".2"/><path d="M504 587.8a991.3 991.3 0 0 0-26.7 146.8h-16s1-147.3-56.7-163.8a31.5 31.5 0 0 0-3.8-.9s-58-115 23.1-144.8l2.3 1.8c15 12 97.7 82.3 77.8 161z" fill="#afc0e0"/><path d="M236.5 570a38.2 38.2 0 0 0-7.5 2.1 979.2 979.2 0 0 1-18.5-144.8l2.9-2.2c81 29.8 23.1 144.9 23.1 144.9zM426.3 426.9a901 901 0 0 1-21.6 144 31.5 31.5 0 0 0-3.8-.9s-58-115 23-144.9l2.4 1.8z" opacity=".1"/><path d="M396.6 591.8q-8.4 33.1-19.7 68s-35.7 37.2-122 0c0 0-8.6-24.3-18.1-65.6-20.9-90.9-45.9-264 7.4-441.7A661.8 661.8 0 0 1 311.4 0s45.6 52.3 79 152.4 54.7 248.1 6.2 439.4z" fill="#e3e8f4"/><circle cx="318.7" cy="293.6" r="71.6" fill="#afc0e0"/><path d="M369.5 293.6a50.8 50.8 0 0 1-83 39.3 51.3 51.3 0 0 1-9.6-10.3 50 50 0 0 1-3.2-5.4 50.7 50.7 0 0 1-5.8-23.6v-1.2a50.9 50.9 0 0 1 37-47.7A52.5 52.5 0 0 1 317 243h1.5a50.8 50.8 0 0 1 50.9 50.7z" fill="#007bff"/><path d="M390.4 152.4c-81.3 39-146.2 0-146.2 0A661.8 661.8 0 0 1 311.4 0s45.6 52.3 79 152.4zM396.6 591.8q-5.7 22.4-12.7 45.6-3.3 11.1-7 22.3s-35.7 37.3-122 0c0 0-2.8-7.8-7-22.3-3.1-10.9-7-25.5-11.1-43.3 0 0 32 13.7 77.7 13.7a214.1 214.1 0 0 0 82-16z" fill="#afc0e0"/><path d="M383.9 637.4q-3.3 11.1-7 22.3s-35.7 37.3-122 0c0 0-2.8-7.8-7-22.3 0 0 88 25.3 136 0z" fill="#e3e8f4"/><path d="M304.9 244.6l-.1.1-37 47.7v1.2a50.7 50.7 0 0 0 5.9 23.5l43.5-74.3zM316.7 287.6L286.5 333a51.3 51.3 0 0 1-9.6-10.3l36-38.7z" fill="#fff" opacity=".2"/><path d="M274.2 659.8s-8.6-24.3-18.1-65.6c-20.9-90.9-45.9-264 7.4-441.8a664.2 664.2 0 0 1 58.9-138c-6.8-9.6-11-14.4-11-14.4a661.7 661.7 0 0 0-67.2 152.4c-53.3 177.8-28.3 351-7.4 441.8a655.4 655.4 0 0 0 18 65.6c34.1 14.7 60.3 17.7 79.5 16a189.4 189.4 0 0 1-60.1-16z" fill="#fff" opacity=".2"/><path d="M937 729s46.7-58.2 43.6-116.5a113 113 0 0 1 18.6-69 190.2 190.2 0 0 1 22-27" fill="none" stroke="#535461" stroke-miterlimit="10" stroke-width="2"/><path d="M1019.4 479.8c-3.4 8 1.6 37.7 1.6 37.7s24.4-17.5 27.8-25.6a15.9 15.9 0 0 0-29.4-12.1zM976.6 514.7c1.6 8.6 21.9 30.7 21.9 30.7s11-27.9 9.3-36.5a15.9 15.9 0 0 0-31.2 5.8zM946 592c5.8 6.6 34.5 15.4 34.5 15.4s-4.7-29.6-10.4-36.3a15.9 15.9 0 0 0-24 20.8zM936.1 655.6c4.5 7.5 31.3 21 31.3 21s.4-30-4-37.5a15.9 15.9 0 1 0-27.3 16.5zM1028.7 559.7c-8.2 3.3-37.7-2-37.7-2s17.7-24.2 25.9-27.5a15.9 15.9 0 0 1 11.8 29.5zM1016.1 634c-8.7.7-35.3-13.2-35.3-13.2s24.1-17.8 32.9-18.5a15.9 15.9 0 0 1 2.4 31.7zM994 704.5c-8.5 2.1-37-7-37-7s20.7-21.7 29.2-23.8a15.9 15.9 0 1 1 7.8 30.8z" fill="#007bff"/><path d="M1019.4 479.8c-3.4 8 1.6 37.7 1.6 37.7s24.4-17.5 27.8-25.6a15.9 15.9 0 0 0-29.4-12.1zM976.6 514.7c1.6 8.6 21.9 30.7 21.9 30.7s11-27.9 9.3-36.5a15.9 15.9 0 0 0-31.2 5.8zM946 592c5.8 6.6 34.5 15.4 34.5 15.4s-4.7-29.6-10.4-36.3a15.9 15.9 0 0 0-24 20.8zM936.1 655.6c4.5 7.5 31.3 21 31.3 21s.4-30-4-37.5a15.9 15.9 0 1 0-27.3 16.5zM1028.7 559.7c-8.2 3.3-37.7-2-37.7-2s17.7-24.2 25.9-27.5a15.9 15.9 0 0 1 11.8 29.5zM1016.1 634c-8.7.7-35.3-13.2-35.3-13.2s24.1-17.8 32.9-18.5a15.9 15.9 0 0 1 2.4 31.7zM994 704.5c-8.5 2.1-37-7-37-7s20.7-21.7 29.2-23.8a15.9 15.9 0 1 1 7.8 30.8z" opacity=".3"/><path d="M937.4 726.5s66.3-34.2 87-88.7a113 113 0 0 1 45-55.7 190 190 0 0 1 31-15.7" fill="none" stroke="#535461" stroke-miterlimit="10" stroke-width="2"/><path d="M1113.7 532.1c-6.3 6-13.8 35.1-13.8 35.1s29.4-6 35.7-12.1a15.9 15.9 0 0 0-21.9-23zM1060.4 546.7c-2 8.5 7.6 37 7.6 37s21.3-21 23.3-29.7a15.9 15.9 0 0 0-30.9-7.3zM1001.2 605c2.6 8.3 25.2 28 25.2 28s7.8-29 5.2-37.3a15.9 15.9 0 0 0-30.4 9.2zM966.3 659c1.1 8.8 20.1 32 20.1 32s12.6-27.2 11.4-36a15.9 15.9 0 0 0-31.5 4zM1089.8 609c-8.8-.4-33.6-17.2-33.6-17.2s26-15 34.8-14.6a15.9 15.9 0 1 1-1.2 31.7zM1048.2 671.7c-8.3-2.9-27-26.4-27-26.4s29.4-6.4 37.6-3.5a15.9 15.9 0 1 1-10.6 30zM999.4 727.2c-8.6-1.5-31-21.4-31-21.4s27.8-11.4 36.4-9.9a15.9 15.9 0 1 1-5.4 31.3z" fill="#007bff"/><path d="M1061.4 750.7l-51.4-74.5s-1-18.5-4.3-22.8-.7-13.9-.7-13.9 3.6-5.2.4-5.7-.4-12.2-.4-12.2l-.3-18.7s2.9-18 .5-22.3a7 7 0 0 1 .2-7.7s3-10.3 0-13-2.1-18.6-1.4-31.3-5-20-5-21.8-19-20.6-19-22.3-12-8.6-19.3-10.6-10.8-3.3-10.5-4.3-11.3-4.8-11.3-4.8-10.1-.7-14-5.7-15.6-6.5-15.9-6.6l-.2-1-.2-1 2.5-4.7.6-1.5c4.2-.2 8.6-1 11.9-3.7a16.1 16.1 0 0 0 5.7-11.5 25.2 25.2 0 0 0-2.8-12.7c-2-4.3-5.2-8.8-4.1-13.5.4-2 1.7-3.8 2.3-5.8 1.1-3.7 0-7.8-1.8-11.3s-4.3-6.6-6.3-10a38.7 38.7 0 0 1-5-14c-.5-2.5-.7-5.3-2-7.6a14.2 14.2 0 0 0-4.2-4.2 42 42 0 0 0-25.8-7.8c-6.5.2-13 2-19.6 1.1-3.9-.4-7.6-1.8-11.4-3-8-2.3-17.3-3.3-24.3 1.3s-9.9 13.7-14.6 20.8c-4.2 6.2-10.4 11.5-13.6 18.1l.1-.3a21.8 21.8 0 0 0-1.8 4.8 34.5 34.5 0 0 0 1.1 15.9c.7 2.7 1.6 5.6 3.9 7s5.6 1.3 8.4 1.7l-.3 1.4a54.9 54.9 0 0 0 38 64v1.5a36.3 36.3 0 0 1-.2 4s-24.1-5-30.6-1.5-19.3 6-21.2 7.9-6.7.5-11 11.7-4.8 22.8-10.3 28-8.4 9-8.6 12.7.7 4.8-1.5 6-5.3 6.3-4.3 8.2c0 0 1.2 4.8-2.7 7.2s-3.3 7.2-3.3 7.2-1.5 5.2-4.8 6.4-5.6 9.1-5.6 9.1L730.5 596 709 572.1a9.1 9.1 0 0 0-12.8-.7l-10.6 9.6a21 21 0 0 0-10.6 6.3 27.4 27.4 0 0 0-5.5 8.2l-5.8 5.2A14.8 14.8 0 0 0 662 617l13.8 15.3.1.1c-5.2.7-9.8 2.4-13.4 5.5-20.6 18.2-20.9 35-17.7 42.6s29.3 37.2 29.3 37.2 15.2 19.7 37.1 30.3l-.1.1c-.5.5-1 1-1.3 1.5l-.4.5-.3.4-.4.6-.3.5-.4.7-.3.5-.5.9-.1.3-.6 1.3-.2.5-.4 1-.2.6-.3 1-.2.6-.3 1-.2.7-.4 1.7v.7l-.3 1.2-.1 1-.2 1.1v1l-.2 1.3v.8l-.1 2.3c-.5 28 1.2 32.2 1.2 32.2s3.3 8.9 12.7 9.5a16.3 16.3 0 0 0 4.1-.2c12.5-2.1 41.8-7.2 52.1-5.3a89 89 0 0 0 26-2l2-.5 1.6 4.8 4.7-1.3 4 2.3 2.6 1.5c4.7 16 24 10.6 24 10.6l4.5 2.6 46.4 1.2s10 6 16.4 7.9a15.2 15.2 0 0 0 2.3.5 105.2 105.2 0 0 0 13 .2c3.5 0 6.2-.2 6.2-.2l-1.1-26.7c17.7-.7 33.4-1.8 43-3.5 24.7-4.4 35-26.9 38.8-38.9a113.2 113.2 0 0 1 2.4 15 106.7 106.7 0 0 0 3.9 12.9 43.7 43.7 0 0 0 5.3 9.6c18.2-6.3 7.2-15.6 3.3-19.7s2.7-7.4 2.7-7.4 5-3.4 4.5-6.5-.7-6.5 15.6-6.2 15.7-13.5 15.7-13.5zm-253.7-153a111 111 0 0 0 4.6 20c.4.8.6 3.7.5 8-9.7-.9-19.7-1.3-19.7-1.3a2.3 2.3 0 0 1 .5 1.3l-1.5-.4-2.2-.5 17.8-27.1zM772.4 654l16.8 2.7 1.4.2a55.1 55.1 0 0 0-.9 8c0 .2.4.5 1 .8a21.6 21.6 0 0 0-.4 4c.3 1.3 8 4.2 17 6.6 0 .5-.2 1-.3 1.4-8-4.2-20.4-6.2-21.9-9.3s-44-18-44-18l-4.2-2 11.2 2 3-.3a168 168 0 0 0 21.3 3.9z" transform="translate(-29.7 -56.4)" fill="url(#a)"/><path d="M977 704.8s-6.7 40.2-40.5 46.2-146.6 4.7-146.6 4.7-64.6-9.3-87.9-63.8-38.3-76.2-18.3-77.1 127.8 36.4 134 36.9 165.2-82.9 159.3 53z" fill="#434175"/><path d="M977 704.8s-6.7 40.2-40.5 46.2-146.6 4.7-146.6 4.7-64.6-9.3-87.9-63.8-38.3-76.2-18.3-77.1 127.8 36.4 134 36.9 165.2-82.9 159.3 53z" opacity=".1"/><path d="M674.4 749.5s3.3 9 12.6 9.5a16.4 16.4 0 0 0 4-.2c12.4-2.1 41.5-7.1 51.7-5.2a88 88 0 0 0 25.7-2c5.4-1 9.3-2 9.3-2s-9.5-31.8-10.7-32.7-42.9-26-42.9-26l-33-2.3s-6.2.4-11.2 6.5c-3.5 4.3-6.5 11.2-6.7 22.5-.5 27.9 1.1 32 1.1 32z" fill="#565387"/><path d="M674.4 749.5s3.3 9 12.6 9.5a135.5 135.5 0 0 1-9-13l.2-23.1a40.6 40.6 0 0 1 13-34.3h-.1s-17.4 1.2-17.9 29 1.1 32 1.1 32zM817.5 699l30.7-24 48.3-47.6-13-.5c-2 1.2-7.5 5.1-7.7 10-.3 5.8-13 .4-19.7 3.7s-39.3 45-45 44.8-10.3-2.9-12.7 1.1l-.1.3z" opacity=".1"/><path d="M679.9 695.2l3.3 1.5c23.3 10 52.1 31 54.3 34.7 1.3 2.4 18 12.5 30.9 20.1 5.4-1 9.3-2 9.3-2s-9.5-31.7-10.7-32.6-42.9-26-42.9-26l-33-2.3s-6.2.4-11.2 6.6z" opacity=".1"/><path d="M615.1 627c3.1 7.5 29 36.8 29 36.8s16.4 21.5 39.8 31.5 52.1 31 54.3 34.7c1.3 2.5 20 13.7 33 21.4l3 1.7 6.5 3.7 3.4 2 16-12.8c8-6.4 15.5-12.7 15.7-13.1.2-.7 3.3-8.8 2.6-9.3-.4-.2-2-3.5-5-7.4a33.8 33.8 0 0 0-12.1-10c-11-5-15.7-16.3-15.7-16.3l-2.7-1.8a31.8 31.8 0 0 0-10.7-4.8c-5.2-.6-15-11.3-15-11.3s-6.7-4.3-9.3-9.8c-2.5-5.2-39.4-30.6-42.8-33l89.5 57.6 21.4 13.7 30.7-24 48.4-47.6-16-.7c-23.5-1-65.2-2.6-70.5-1.4a40.2 40.2 0 0 1-13.1.8s-11.9.6-19.8-3.6-20.2-6-21.6-9.1-43.6-17.9-43.6-17.9-57.4-30.5-77.9-12.4-20.6 34.7-17.5 42.3z" fill="#434175"/><path d="M800.1 452.2l7.4 24.5L817 532l35 2.4 10.1-16.8 10.2-16.8s6.3-22.3 10.8-43.9c4-19 6.6-37.6 2.3-39.6-3.9-1.8-6.4-8.2-8-15.2l-.6-2.5a134.6 134.6 0 0 1-2.3-17.8s-73.4-3.8-63.1 26.4a48.2 48.2 0 0 1 2.7 16.1 38.2 38.2 0 0 1-.2 4.1 34.3 34.3 0 0 1-13.8 23.9z" fill="#ee8e9e"/><path d="M784.9 448.1l2.6 41.7 6 35.5 6.6 16.4 6 89.9s57.4 6.6 71.3-.1a6.1 6.1 0 0 0 2.6-2c16.8-25.5 11.3-99.2 11.3-99.2l6.4-47.7-4.3-24.7-10.3-1-8-1-4.4 5.7c-7 9.3-20 27.7-19.2 35.3 1.2 10.5-1.4 21.2-5.5 22.9s-7.4 4.5-8 1.6-1.5-3.5-.8-7.6-3-16.4-3-16.4-6.5-14.5-6-20.7-.8-13.4-2.7-15-4.5-3.4-2.4-11-9.4-22.5-9.4-22.5z" fill="#e3e8f4"/><path d="M860.7 552.2l2.4 71.2 13.7 7.6a6.2 6.2 0 0 0 2.5-2c17-25.5 11.4-99.2 11.4-99.2l6.4-47.6-4.3-24.8-10.3-1c4-19.2 6.6-37.7 2.2-39.7-3.8-1.8-6.4-8.2-8-15.1l-7.4 50.4s.6 4.5.8 9.2c.2 3.5.1 7-.6 8.8-1.7 4.3-.5 12-.5 12-4.3 7.5-6.4 21.5-7.4 35-1.5 18-1 35.2-1 35.2z" opacity=".1"/><path d="M877 400.5s12 1.4 15.7 6.4 13.8 5.7 13.8 5.7 11.4 3.8 11.2 4.8 3.3 2.4 10.5 4.3 19 8.8 19 10.5 18.8 20.2 18.8 22.1 5.7 9 5 21.7-1.4 28.5 1.4 31.2 0 12.8 0 12.8a7 7 0 0 0-.1 7.6c2.4 4.3-.5 22.2-.5 22.2l.2 18.6s-2.6 11.6.5 12.1-.5 5.7-.5 5.7-2.6 9.5.8 13.8 4.2 22.6 4.2 22.6l51 74s.8 13.6-15.4 13.4-16 3-15.5 6.2-4.5 6.4-4.5 6.4-6.5 3.3-2.7 7.4 14.8 13.3-3.3 19.5a43.2 43.2 0 0 1-5.2-9.5 107.7 107.7 0 0 1-3.8-12.9s-1.7-18-5-20.5-2.9-13.8-2.9-13.8 4.8-9.3-1.9-13l-103.4-57.4-2.4-71.2s-1.7-52.6 8.3-70.2c0 0-1.2-7.6.5-12s-.2-18-.2-18z" fill="#565387"/><path d="M814.5 429s-24-5-30.4-1.6-19 6-21 7.9-6.6.5-10.9 11.6-4.8 22.7-10.2 27.9-8.4 8.8-8.6 12.6.7 4.8-1.4 6-5.3 6.2-4.3 8.1 49.6 43.8 49.6 43.8 2.4 16 4.5 20-2.4 59.7-7.1 63.5 32.1 3.5 32.1 3.5 1.7-36.5 3.1-38.5-1-41-1-41-.2-33.3 2.9-42.1 2.7-38 2.7-38 2.7-17.6 6-21.7-6-22-6-22z" opacity=".1"/><path d="M813.8 428.3s-24-5-30.4-1.6-19 6-21 7.9-6.6.4-11 11.6-4.7 22.7-10.2 27.9-8.3 8.8-8.5 12.6.7 4.8-1.5 6-5.2 6.2-4.2 8 49.5 43.9 49.5 43.9 2.4 16 4.5 20-2.4 59.7-7.1 63.5 32.1 3.5 32.1 3.5 1.7-36.6 3.1-38.5-1-41-1-41-.2-33.3 2.9-42.1 2.7-38.1 2.7-38.1 2.7-17.6 6-21.7-5.9-21.9-5.9-21.9z" fill="#565387"/><path d="M811.3 408.1a48.2 48.2 0 0 1 2.7 16.1 54.6 54.6 0 0 0 62.7-24.7 134.6 134.6 0 0 1-2.3-17.8s-73.4-3.8-63.1 26.4z" opacity=".1"/><path d="M775.1 370.5a54.5 54.5 0 1 0 1.2-11.3 54.5 54.5 0 0 0-1.2 11.3z" fill="#ee8e9e"/><path d="M740.1 496.7l-13 4s1.1 4.8-2.7 7.2-3.3 7.1-3.3 7.1-1.5 5.3-4.8 6.5-5.5 9-5.5 9l-11 12.6s-4 3.3-3.3 5-4.3 2.1-4.3 2.1l2.7 42.4 22.6 4.3 14-1.4 11.4-4.3 10-6 4.6-11.6 20-30.4z" fill="#565387"/><path d="M695.6 553.6s-29-41.9-50.7-19.3 8.8 59.3 16 58.1 41.1-3 41.1-3z" fill="#ee8e9e"/><rect x="671.3" y="583.9" width="61.4" height="69.8" rx="12.6" ry="12.6" transform="rotate(-42 613.9 629.3)" fill="#30374e"/><rect x="671.3" y="583.9" width="61.4" height="69.8" rx="12.6" ry="12.6" transform="rotate(-42 613.9 629.3)" opacity=".1"/><rect x="672.2" y="580.5" width="61.4" height="69.8" rx="12.6" ry="12.6" transform="rotate(-42 614.7 625.9)" fill="#30374e"/><circle cx="672.4" cy="560.7" r="13.6" fill="#007bff"/><circle cx="672.4" cy="560.7" r="13.6" opacity=".1"/><circle cx="673.1" cy="559" r="13.6" fill="#007bff"/><path d="M676.8 562.4c-.3 31.4 64.7 38.1 64.7 38.1l16.6 2.6 7.5 1.2 3-30.7s-3.3-.5-7.6-1.5c-6.3-1.4-14.4-4-16.1-7.5-2.9-6-67.9-33.6-68.1-2.2z" fill="#ee8e9e"/><path d="M776.3 359.2a6.5 6.5 0 0 1 4 1.8c1.8 2 2 5.4 4.3 6.6a5 5 0 0 0 2.8.3c6.4-.9 10-8 16.1-10 3.5-1.1 7.3-.4 10.7 1a8 8 0 0 1 3.5 2.2c2 2.6.6 6.5 1.6 9.7 1.3 4.4 6.5 6.2 11.1 6.7s9.7 1 12.8 4.4c2.1 2.4 2.7 6 2.2 9.2a7.3 7.3 0 0 0 0 3.4c1.3 3.6 7.5 3 9.1.2 1.2-2 .8-3.7 3.6-4.3 1.9-.4 4 .4 5.8 1a42.7 42.7 0 0 0 15.1 2.3 54.5 54.5 0 1 0-102.7-34.5z" opacity=".1"/><path d="M845.4 393a7.3 7.3 0 0 1 0-3.3c.4-3.3 0-6.8-2.3-9.3-3-3.4-8.2-3.7-12.7-4.3s-9.9-2.3-11.2-6.8c-1-3.1.5-7-1.5-9.7a7.8 7.8 0 0 0-3.5-2.2c-3.4-1.3-7.2-2-10.7-1-6 2-9.7 9.2-16 10a5 5 0 0 1-3-.3c-2.3-1.2-2.4-4.6-4.2-6.6-3-3-8.4-1-12-3.3-2.3-1.5-3.2-4.4-3.8-7a34.3 34.3 0 0 1-1-15.9c2-8.8 10-14.9 15-22.5 4.6-7 7.3-16 14.4-20.6s16.1-3.6 24.1-1.2c3.7 1 7.4 2.5 11.3 3 6.5.8 13-1 19.4-1.2a41.6 41.6 0 0 1 25.6 7.8 14.2 14.2 0 0 1 4.2 4.2c1.3 2.3 1.4 5 1.8 7.6a38.8 38.8 0 0 0 5 13.9c2 3.3 4.5 6.4 6.3 9.8s3 7.6 1.7 11.3c-.6 2-1.8 3.7-2.2 5.8-1 4.6 2 9 4 13.3a25.1 25.1 0 0 1 2.9 12.7 16 16 0 0 1-5.7 11.4 20.5 20.5 0 0 1-12.1 3.7 42.8 42.8 0 0 1-15.4-2.3c-1.8-.6-4-1.4-5.8-1-2.8.6-2.5 2.3-3.6 4.3-1.5 2.8-7.7 3.3-9-.2z" fill="#434175"/><path d="M816 700.5l30.8-24 48.3-47.6-16-.7c-1.7 1.7-3.3 4-3.4 6.5-.2 5.8-13 .4-19.7 3.7s-39.3 45-45 44.8-10.2-2.9-12.6 1.1a2.5 2.5 0 0 1-.2.3 6.8 6.8 0 0 1-3.6 2.2z" opacity=".1"/><path d="M754.1 698.8l15.5 49.3 2.4 7.7 7.3-2 16.2-4.4 72.2-19.8s13.6-.2 26-7a78.7 78.7 0 0 1 44.8-9.8c9.6 1 20.2-3.2 29-19.4 0 0 20-59-30.4-76s-53 9-53 9l-.6.4c-2 1.2-7.4 5.2-7.6 10-.3 5.8-13.1.4-19.8 3.7s-39.3 45.1-45 44.8-10.2-2.9-12.6 1.2l-.2.2c-1.7 2.5-7 3-10.5 3.1h-3.3l-.5.2-3.7 1z" fill="#434175"/><path d="M758.1 603.1l7.5 1.2 3-30.7s-3.3-.5-7.6-1.5c1.1 4.3-1.4 20.9-2.9 31z" opacity=".1"/><path d="M952.8 459.6s22.2-6.4 16.7 56.5S923 618.6 923 618.6s-47.2 20.7-68.4 17.4-36.6-4-36.6-4a53.8 53.8 0 0 0-21.5-5.7c-11.9-.5-36.9-7.9-37.3-10.2s6.2-37.4 3.3-40c0 0 33.3 1.3 36.7 3.7s8 .7 11.6 0 14.5-10.2 36.2-1.8c0 0 7.4.7 10.2-1.2s7.5-.5 7.5-.5 4.5-1.7 5.2-2.7 6.4 0 6.4 0a2.5 2.5 0 0 0 3.6-1.6 15.6 15.6 0 0 1 3.3-5.3s6.4-36.2 18.6-49.7c0 0 3.5-3.1 2.6-7s19.8-58 48.3-50.4z" opacity=".1"/><path d="M952.3 454.8s22.1-6.4 16.7 56.4-46.5 102.6-46.5 102.6-47.2 20.8-68.4 17.4-36.6-4-36.6-4a53.7 53.7 0 0 0-21.4-5.7c-12-.5-37-7.9-37.4-10.3s6.2-37.4 3.3-40c0 0 33.3 1.4 36.7 3.8s8 .7 11.6 0 14.6-10.2 36.2-1.9c0 0 7.4.7 10.3-1.2s7.4-.4 7.4-.4 4.5-1.7 5.2-2.7 6.4 0 6.4 0a2.5 2.5 0 0 0 3.6-1.6 15.5 15.5 0 0 1 3.3-5.3s6.4-36.2 18.6-49.7c0 0 3.6-3.1 2.6-7s19.8-58 48.4-50.4z" fill="#565387"/><path d="M780.3 691l31.4 38 .2-.2c.3-.7 3.4-8.8 2.6-9.3s-6.1-12.4-17.1-17.4c-6.7-3-11-8.5-13.5-12.2z" opacity=".1"/><path d="M780.7 756.9l3.4 2 16-12.9c8-6.5 15.6-12.7 15.7-13.1.2-.7 3.3-8.8 2.6-9.3-.3-.2-2-3.5-5-7.4-21.3-6-7.7 8.9-6 9.6 0 0-26-6-27.3 22.3a33.4 33.4 0 0 0 .6 8.8z" opacity=".1"/><path d="M807 768.8l4.5 2.7 46 1.1s9.9 6 16.3 7.9a14 14 0 0 0 2.3.5 103.3 103.3 0 0 0 12.8.2c3.5 0 6.2-.2 6.2-.2s-2.1-58-3.8-64c-.8-3-4.6-2.3-8.4-.8a55.2 55.2 0 0 0-8.2 4.1s-19.6 2-22.7 3.6-11.9-1-17.3 0-15.3-6.5-15.3-6.5c-26.6-8.8-11.6 7.7-9.7 8.4 0 0-26-6-27.4 22.3s24.7 20.7 24.7 20.7z" fill="#565387"/><path d="M873.4 746.4c.5 12 9.9 27 15.4 34.8 3.6 0 6.3-.2 6.3-.2s-2.2-58-3.8-64c-.8-3-4.7-2.3-8.5-.9-4.5 8.6-9.8 20.7-9.4 30.3z" fill="#565387"/><path d="M873.4 746.4c.5 12 9.9 27 15.4 34.8 3.6 0 6.3-.2 6.3-.2s-2.2-58-3.8-64c-.8-3-4.7-2.3-8.5-.9-4.5 8.6-9.8 20.7-9.4 30.3z" opacity=".1"/><path d="M865.6 748c3.1 11.6 3.1 24.6 8.1 32.5a14 14 0 0 0 2.3.5 103.3 103.3 0 0 0 12.8.2c3.6 0 6.3-.2 6.3-.2s-2.2-58-3.8-64c-.8-3-4.7-2.3-8.5-.9a55.2 55.2 0 0 0-8.2 4.2s-13 13-9 27.7zM707 630.6s22.9 7.4 42.2 33.7z" opacity=".1"/><g opacity=".1"><path d="M892.5 344.9a4.7 4.7 0 0 1-.1.5 16.1 16.1 0 0 1-.8 2 15 15 0 0 1 1-2.5zM763.4 333.3a21.5 21.5 0 0 1 1.8-4.8l-.4 1.3a34.3 34.3 0 0 0 1 15.8c.7 2.6 1.6 5.5 4 7 3.5 2.3 9 .3 11.8 3.4 1.9 2 2 5.4 4.4 6.6a5 5 0 0 0 2.8.3c6.3-.9 10-8 16-10 3.5-1.1 7.3-.4 10.7 1a7.8 7.8 0 0 1 3.5 2.2c2 2.6.7 6.5 1.6 9.7 1.3 4.4 6.6 6.2 11.2 6.7s9.7 1 12.7 4.4c2.2 2.4 2.7 6 2.3 9.2a7.4 7.4 0 0 0 0 3.4c1.3 3.6 7.4 3 9 .2 1.2-2 .8-3.7 3.6-4.3 1.9-.4 4 .4 5.8 1a42.8 42.8 0 0 0 15.4 2.3c4.3-.1 8.7-1 12-3.6a14 14 0 0 0 3.8-4.5 15.1 15.1 0 0 1-5.1 8 20.4 20.4 0 0 1-12 3.7 42.7 42.7 0 0 1-15.5-2.3c-1.7-.6-4-1.4-5.8-1-2.8.6-2.4 2.3-3.6 4.3-1.6 2.8-7.8 3.4-9-.2a7.4 7.4 0 0 1 0-3.4c.4-3.3-.2-6.8-2.3-9.2-3-3.5-8.2-3.8-12.8-4.4s-9.8-2.3-11.1-6.7c-1-3.2.4-7.1-1.6-9.7a7.9 7.9 0 0 0-3.5-2.3c-3.4-1.3-7.2-2-10.7-1-6 2-9.7 9.2-16 10a5 5 0 0 1-2.9-.2c-2.4-1.2-2.5-4.7-4.3-6.6-3-3.1-8.4-1.1-12-3.4-2.3-1.5-3.1-4.4-3.8-7a34.5 34.5 0 0 1-1-15.9z"/></g><path d="M896.2 523.9c-4.4 5.9-9.3 11.3-13.2 17.6s-6.6 13.5-5.8 20.8c4-4.1 5.8-9.8 8.4-15 4.2-8.6 10.6-16 16-24 1-1.6 7.6-10.4 4.2-10.8-2.7-.4-8.1 9.4-9.6 11.4z" opacity=".1"/></svg>